# xmcd CD database file
#
# Track frame offsets:
#	150
#	17865
#	35115
#	52732
#
# Disc length: 930 seconds
#
# Revision: 0
# Processed by: cddbd v1.5PL3 Copyright (c) Steve Scherf et al.
# Submitted via: CDex 1.51
#
DISCID=2b03a004
DTITLE=ピョコラ＝アナローグ?世 - 「デ・ジ・キャラットにょ」イメージソング ぴょこLOVE 注意報 
DYEAR=2003
DGENRE=Anime
TTITLE0=ピョコラ＝アナローグ?世 - ぴょこLOVE 注意報
TTITLE1=ピョコラ＝アナローグ?世 - Grow up！〜明日があるぴょ〜
TTITLE2=ぴょこLOVE 注意報　カラオケ
TTITLE3=Grow up！〜明日があるぴょ〜　カラオケ
EXTD=YEAR: 2003/11/28
EXTT0=
EXTT1=
EXTT2=
EXTT3=
PLAYORDER=
